<?xml version="1.0" encoding="UTF-8"?>
<svg id="Layer_2" data-name="Layer 2" xmlns="http://www.w3.org/2000/svg" viewBox="0 0 255 255">
  <defs>
    <style>
      .cls-1 {
        fill: #e1348f;
      }
    </style>
  </defs>
  <g id="Layer_1-2" data-name="Layer 1">
    <path class="cls-1" d="M151.86,83.27c29.37-24.59,62.28-54.85,92.51-77.2,11.08-8.19,6.66,2.21,1.79,8.83-15.43,20.99-35.87,41.38-52.67,61.65-13.84,16.7-27.46,33.65-40.56,50.96l102.07,127.5-127.53-102.02c-27.04,20.88-52.67,43.49-79.16,65.05-4.94,4.02-11.38,6.99-15.79,10.59-8.78,7.18-15.99,20.96-29,22.86l99.65-123.98L0,0l126.61,102.91c3.57,1.6,8.81-6.04,11.44-7.95,6.69-4.86,8.52-7.27,13.81-11.69Z"/>
  </g>
</svg>